<?xml version="1.0" encoding="UTF-8"?>
<svg id="Layer_1" xmlns="http://www.w3.org/2000/svg" width="1277.4" height="1171.73" viewBox="0 0 1277.4 1171.73" fill="currentColor" stroke="currentColor">>
  <path d="M80.32,.65c-2.7,1.9,3.6,4.7,19.7,8.7,20.2,5.1,68,20.6,91.6,29.8,94.7,37,159.7,89.2,202.7,162.7,12.5,21.4,19.7,37.7,29.4,66.6,7.5,22.6,11.5,38.4,11.7,46.8l.2,6.1-4.5-.1c-3-.1-10.9-2.6-24-7.6-56.8-22-105.6-33.5-160.4-37.9-19.1-1.5-64.6-.7-81.6,1.6-46.2,6-81.9,16.4-118.2,34.6-13.9,7-21.2,11.5-25.2,15.8-3.9,4.1-2.7,4,12-.8,24-7.8,65.3-16.8,98.9-21.4,21.6-2.9,65.7-3.1,87-.4,52.2,6.8,97.9,22.9,129.5,45.6,9.8,7.1,9.4,7,8.6,2.6-1.3-6.7-2.3-17.9-1.8-19.3,.7-1.9,4.3-1,15.9,3.9,12.9,5.4,29.2,13.8,37.3,19.1,19.4,12.7,29.1,30.8,23.1,43.1-2.7,5.6-7.8,9.1-16,11.3-5.6,1.4-8.2,1.5-18.5,.5-13.8-1.2-17.8-.6-23.8,3.6-8.6,6-9.3,6.3-14.1,6.3-2.7,0-9.6-1.1-15.5-2.5-99.7-22.9-220.4-34.6-280.2-27.1-27.3,3.4-47.5,7.1-58.9,10.8-5,1.6-6,2.3-4.7,3,.9,.5,20.6,1.3,43.8,1.8,101.5,2.3,141.1,6.6,201.3,21.6,46.1,11.5,81.3,25,137.4,52.8,15.1,7.4,27.6,13.4,27.8,13.2s-.9-4.1-2.3-8.7c-4.9-14.9-3.5-25.5,4.2-33.3,8.8-8.7,19.4-8.3,33,1.3,14.8,10.3,35.4,37,35.6,46.1,.2,4.9-1.9,6.1-12.4,7.1-12.1,1.1-16.4,2.4-18.4,5.5-2.5,3.7-.5,9.1,5.6,15.4,6.3,6.4,9.2,7.6,24.6,10,8,1.2,13.7,2.6,15.8,3.9,2.2,1.4,5.6,6.1,10.8,14.8,23.7,39.9,65.1,87,85.3,97.3,11.1,5.7,10.3,3.2-5.6-16.6-19.9-24.7-26.5-38.6-27.6-58-.7-12,.4-17.6,5.7-28.9,5.4-11.6,13.2-21.5,35.3-44.5,18-18.7,20.1-21.2,23.8-29,4.1-8.5,18.5-34.8,19.8-36.3,.4-.4,6,9.8,12.4,22.7,13.4,27,15.5,29.8,36.8,47.2,24.7,20.2,34.9,34.8,38,54.3,1.7,11.5-1,26-7.1,38.1-7,13.9-22.2,33-32.6,41.1-3.6,2.9-6.3,5.7-6.1,6.3,.7,1.9,6.6,.9,13.1-2.3,21-10.3,56.8-51.4,81.1-93.1,10-17.3,11.7-18.7,26.1-22,16.1-3.8,28.4-11.7,27-17.4-.7-2.9-4.1-4.1-13.6-5-10.2-1-17-7-17-15.3,.1-7.7,10.3-19.9,26.9-32.1,9.6-7.2,26.6-15.9,33.1-17,8.5-1.5,15,1.4,18.4,8.2,1.7,3.5,1.8,4.5,.7,10.6-.7,3.7-3,11.9-5.2,18.1-2.1,6.2-3.9,11.4-3.9,11.6,0,1,4.6-.8,27.3-11.1,81.5-36.7,148.1-60.7,183.9-66,13-2,41.4-3.4,94.3-4.6,46.3-1.1,85-2.6,94.9-3.6,5.6-.6,5.8-.7,3.5-1.9-7-3.7-35.5-7.4-76.4-10-27.2-1.7-101.2-2-121.9-.4-27.8,2-68.2,8.3-116.6,18-31.6,6.3-46.8,8.1-49.4,6-.8-.7-1.8-2.6-2.1-4.2-1.3-5.9-3.6-6.6-23.2-7.2-21.1-.7-25.4-1.6-29.1-6.5-2.4-3.1-2.7-4.5-2.7-10.7s.4-8.1,4-15c5.3-10.5,15.5-21,25-25.8,8.1-4,23.5-9.9,35-13.3,9.6-2.9,17.2-3.5,18.5-1.4,2.3,3.6,.3,8.6-5.5,13.8-2,1.9-3.4,3.6-3.2,3.9,.8,.7,10.2-4.4,21.7-11.6,20.5-13,35.2-20.1,56.3-27.2,34.8-11.6,76.3-16.9,115.7-14.8,24.3,1.4,39.4,3.9,84,14,29.9,6.7,54.7,11.9,56.8,11.9,3.1-.1-1.5-2.9-17.3-10.5-34.6-16.8-63.8-26.2-101-32.5-25.6-4.2-36.7-5.1-70.5-5.7-48.6-.8-71.2,1.7-112.5,12.2-35.4,9-65.2,19.3-92,31.7q-26.1,12.2-25.2-.2c1.9-25.6,27-91.7,46.3-121.5,23.3-36.1,61.2-76.4,97.6-103.8,49.4-37.1,127.1-71.7,199.4-88.7,9.1-2.1,16.8-4.1,17-4.3,1.1-1.1-35.4-1.6-47.8-.7-55.7,4.1-125.9,26.4-193.3,61.4-29.4,15.3-124.8,70.4-122.8,70.9,1,.3,6.5,1.7,12.3,3.2,14.4,3.7,20,6.2,20,8.9,0,2.4-2.5,7-12.4,23.1-13.3,21.5-33.2,64.7-43.2,94-9.5,27.5-13.6,48.5-15.6,80.7-1.4,21.7-.2,46.8,3.2,70.3,2.5,16.5,2.7,24.9,.7,29.6-2.5,6-10.8,19.1-16.8,26.5-21.2,26.1-49.4,28.6-75.4,6.7-26.9-22.7-55.4-79.9-63.5-127.8-2-11.5-2.2-15-1.6-31.2,.7-17.5,.6-18.3-1.3-20.2-2.5-2.5-3.5-2.6-5.4-.6-2.5,2.4-3.4,6.5-8.7,38-8.1,48.1-16.1,77.5-28,102.3-13.4,27.8-28.7,43.9-48.3,51-9.3,3.4-24,3.6-32.9,.5-16.4-5.7-35.2-23.2-40.9-38.2-3.5-9-3.6-23.7-.5-44.6,8-52.7,5-90.7-10.7-137.1-9.9-29-29-68.9-54.8-114l-2.9-5.1,5.8-4.5c7.3-5.8,9-6.6,15.4-7.8,2.9-.6,5.9-1.7,6.7-2.5,1.3-1.3,1.1-1.9-1.9-5.1-14.6-15.3-103.5-63.3-163.5-88.4C234.82,26.35,191.02,13.45,149.62,6.45,122.62,1.85,83.32-1.45,80.32,.65Z" />
  <path d="M932.12,512.85c-33.3,4.7-76.7,25.3-117,55.6-21.6,16.2-35.1,28.8-74.5,69-48.2,49.2-82.8,81.5-92.1,85.9-3.4,1.6-3.9,1.6-8,0-2.6-1-9.4-6-17.1-12.8-17.6-15.4-76.7-74.5-95-95.2-14.9-16.7-27.8-29.1-46.1-43.9-40.6-33-75-50.5-111.7-57.2-15.1-2.7-46.1-1.2-49.8,2.5-2.5,2.5,2.8,4.1,22.8,7.1,41.4,6.3,84.7,23.9,99.3,40.5,4.8,5.4,5.3,7.6,8.2,31,2.3,19.6,3.8,25.5,9.5,37,14.3,29.1,41.6,48.4,91,64.5,7.2,2.3,18.2,6.7,24.5,9.7,22,10.4,44.6,27.7,50,38.3,2.8,5.5,2.5,7.7-4.5,29-14.4,44.1-18.2,74.2-12.7,101,3.2,16,4.5,13.3,19.7-43.5,15-56,15.3-56.4,23.9-31.5,4.8,13.5,10.5,33.5,17.1,59,5.4,21.2,7.7,28,9.3,28,4.3,0,3.6-50-.9-72.3-2.6-12.8-8.4-30.3-15.3-45.7l-5.4-12.4,4.9-7.1c17.4-24.8,37.7-44.3,51.2-49.3,2.8-1.1,12.5-3.2,21.5-4.6,18.6-3.1,30.7-6.7,43.7-13.1,23.5-11.6,41.5-33.2,49.9-60,3.3-10.5,4.2-14.8,6.5-30.8,1-7.3,2.5-14.8,3.4-16.7,4.2-10.1,34.1-29.6,62.2-40.6,16.7-6.5,32.1-10.2,49.8-11.9,15.9-1.5,18.9-2.5,16.2-5.5-3.4-3.7-21.4-5.8-34.5-4Zm-444,81.6c5.8,4.9,8.2,12.4,9.6,29.4,.8,10.2,1.3,11.5,5.9,13,4.8,1.6,8.1,.6,10-3,.9-1.7,2.1-3,2.8-3,1.6,0,16,15.2,25.2,26.5,7.6,9.5,10.1,13.3,9.1,14.3-.8,.8-18.9-2.7-25.3-4.9-25.7-8.8-41.6-25.3-45.9-47.7-2.3-12.3-1.6-21.2,2.2-25.3,2.2-2.5,2.7-2.4,6.4,.7Zm322.7,4.2c.5,1.5,.8,6.1,.7,10.3-.3,22.4-14.6,42.5-38.9,54.6-6.5,3.3-22.7,8.7-28.8,9.8-5,.8-5.8-1.3-2.7-7.2,3.5-6.6,27.9-35.5,29.3-34.6,.7,.3,2.7,1.8,4.5,3.1,4.5,3.4,12.6,4.3,14,1.5,.6-1,1.5-7.6,2.1-14.5,1-13.6,2.6-18.1,7.8-23,5.6-5.4,10.5-5.4,12,0Z" />
  <path d="M307.52,552.35c-20.2,4.4-41.6,19.1-55.8,38.5-3.8,5.2-4.5,6.6-3.2,6.8,.9,.2,7.2-2.2,13.9-5.3,26.2-12.2,37.1-15.8,52.9-17.4,16.8-1.7,34.8,1.8,47.7,9.1,20.7,11.9,37.2,40.6,35.9,62.7-.6,10.1-5.2,20.3-10.8,23.8-11.9,7.3-10.9,11.6,6.6,28.8,22,21.7,53.5,42.2,86.4,56.3,20.8,8.9,41,14.4,41,11.1,0-1.7-7.5-7.8-23.8-19.3-29.9-21.2-49-40.8-58.6-60.2-10.1-20.5-11.3-40.9-4.2-71.2l3.3-14.2-9.2-8.8c-21.6-20.7-53.2-35.6-86.5-40.7-11.6-1.8-27.4-1.8-35.6,0Z" />
  <path d="M949.12,551.45c-9.6,1.2-20.3,3.9-27.8,7-10.6,4.4-29.6,13.9-40.4,20.3-8,4.7-25.9,17.9-27.3,20-.3,.6,.5,7,1.9,14.3,5.1,27,5.8,39.4,3,53.9-5.3,28.2-23.1,50.3-63.1,78.5-17.9,12.6-24.3,18-24.3,20.6,0,1.8,.4,1.9,5.3,1.3,11.8-1.6,40.5-12.9,60-23.6,29.5-16.3,59.5-41.1,73.4-60.7,4.5-6.3,4.4-8.9-.4-9.8-5.8-1-8.9-3.8-12.5-11.1-2.8-5.8-3.3-7.9-3.6-16.2-.5-11.6,1.3-19.4,6.9-30.1,12.8-24.7,36.5-40.3,63.4-41.7,18.3-1,31.7,2.4,57.5,14.7,24.1,11.5,26,11.5,17.5,.2-12.3-16.4-32.9-30.3-52-35.2-7.9-2-29.5-3.4-37.5-2.4Z" />
  <path d="M443.62,649.45c1.4,7.6,6.7,22,10.7,28.9,5.2,9,12.7,18.3,22,27.4,14.8,14.7,52.9,45.6,61.7,50.1,2.2,1.1,4.7,3.3,5.6,5,3.9,7.4,10,32.2,13.5,54,2.5,15.9,8,36,17,62,14.5,41.7,17.3,56.8,13,71.1-3.4,11.6-2,15.3,3.9,10.3,3.9-3.3,6.5-8.2,8-15.2,2.5-12,.8-27.7-6.8-61-7.7-34-8.2-38.9-8.2-77.2,0-31.9,1-42.7,4.1-46.7,2.5-3.2,2.6-9.2,.4-13.9-2.5-5.2-10.3-8.6-27.4-11.9-29.5-5.9-63.9-25.2-88-49.4-6.5-6.5-12.5-14-18.5-23.1-9.7-14.5-12.1-16.7-11-10.4Z" />
  <path d="M837.52,651.65c-2.2,2.8-6.1,8.5-8.8,12.7-5.9,9.4-21.2,25.5-32.1,34-23.7,18.4-45,28.8-73.2,36-15.5,3.9-23,7.2-26.8,11.6-3.2,3.9-3.2,6.6,.2,11.5,4.8,7.1,5.5,11.2,6,35.3,.8,33.2-1.9,59.6-9.3,92.1-4.7,21-4.4,19.5-6,29-1.8,11.3-1.8,25.3,.1,31.8,2.5,8.2,10.1,17,12.6,14.5,.8-.8,.5-3.2-1.1-8.9-4.5-15.9-1.8-30.4,15-80.4,10.9-32.5,13.3-41.5,16.5-63.9,3.9-26,6.7-35.4,13.4-43.9,1.4-1.8,8-7.4,14.6-12.5,27.4-20.9,38.8-30.7,53.2-46,16-17,25.9-33.3,29.8-49.1,2.2-9.1,.9-10.4-4.1-3.8Z" />
  <path d="M520.62,813.05c.4,1.3,3.5,8.6,7,16.3,12.7,28.2,16.8,48.6,18.1,89,.7,21.2-.4,32.7-3.6,35.9s-6.7,1.3-15.7-8.2c-4.6-4.7-8.4-8.4-8.6-8.1-.3,.2-4.7,6.7-9.9,14.4-11.6,17.1-15.3,23.6-16.8,29.6-1.6,6.4,.5,10.8,10.8,22.6,22.9,26.2,36.7,47.9,80.2,126.3,15.3,27.6,19.2,34,21.1,34,2.5,0-2.5-21.4-8.9-38.5-8.6-23.1-22.9-52.5-47.9-99-15.7-29-22.3-42-22.3-43.5,0-1.6,10.2-7,13.3-7,1.5,0,5.8,1.6,9.6,3.5,8.8,4.6,15.8,4.9,19.8,.9l2.6-2.6-.6-20.2c-1.1-32.9-4.5-60.2-10.7-85.5-7.7-31.7-17.6-50.5-30.8-59-5.9-3.7-7.6-4-6.7-.9Z" />
  <path d="M757.52,814.75c-10.3,6.9-18,19.5-25.2,41.3-9.1,27.4-12.8,54.5-15.8,116l-.6,13.8h5.8c7.4,0,12-1.3,15.1-4.2,3.4-3.2,13.9-3.3,18-.2,2.5,1.9,2.8,2.8,2.8,7.5,0,5-.9,6.9-9.7,22.9-20.5,37.4-47.3,92.2-57.1,117.1-6.4,16.1-11.9,34.6-11.5,38.9,.2,2.8,.8,3.6,2.6,3.8,1.7,.3,2.5-.2,2.9-1.9,2.6-9.9,51.3-97.5,69.7-125.4,11.3-17,22.5-31.6,34.5-44.5l8.9-9.7-6-11.4c-8-15.2-13.9-25-19.9-33.3l-5.1-6.8-3.1,3.8c-5.9,7.4-13.3,14.3-16,14.9-3.5,.9-6.3-1.4-7.7-6.4-1.8-6-2.4-29.7-1.1-44.1,1.9-21.6,4.8-37.4,9.7-53.7,3.8-12.6,9.3-25.1,14.7-33.6,2.1-3.2,3.7-6.4,3.7-7.2,0-2.6-3.5-1.7-9.6,2.4Z" />
  <path d="M688.02,992.05c-12.3,4.4-22.4,14.1-28.8,27.8-3.7,7.9-7,20.2-7.8,29.1-.5,6.1-.3,7.2,3.6,16.3,5.8,13.6,6.8,18.6,4.4,23.3-4.6,9.5-21.4,11.1-30.1,3-6.6-6.2-6.7-11.1-.2-24.2,8.9-18,9.1-30.8,.9-46.7-5.7-10.7-16.4-21.7-25.6-26.1-6.1-2.9-7.7-3.2-15.8-3.2s-9.6,.3-14.5,2.9c-12.6,6.5-20,14.2-20,20.6,0,7.2,9.8,18.2,21.4,24,6,3.1,13.6,4.1,13.6,1.8,0-.6-1.7-3.4-3.9-6.2-7.2-9.5-7.8-12.6-3-17.2,2.4-2.3,3.9-2.9,7.4-2.9,10.5,0,19.5,13.7,19.5,29.8,0,10.6-2.7,15.4-15.1,26.9-5.4,5-9.9,9.6-9.9,10.2s5.5,7.2,12.1,14.6c20,22.3,29.2,35.3,41.5,58.3l6.8,12.8,6.6-13.3c12.6-25.5,41.3-63.7,49.8-66.3,4.2-1.2,2.2-4.9-9.8-18-10.1-10.9-12.4-15.6-12.4-24.6,.1-18.2,15.3-34.9,27.4-29.9,5.9,2.5,4.8,8.2-3.6,18.7-6.5,8.1-6.8,10.9-1.2,10.6,5.4-.3,15.9-5.5,21.3-10.4,5.6-5.2,8.9-11.3,10.5-19.7,1.6-8.1,.4-11.1-6.5-15.6-12.5-8.3-26.5-10.6-38.6-6.4Z" />
</svg>