<?xml version="1.0" encoding="utf-8"?>
<!-- Generator: Adobe Illustrator 27.0.0, SVG Export Plug-In . SVG Version: 6.00 Build 0)  -->
<svg version="1.1" id="emoji" xmlns="http://www.w3.org/2000/svg" xmlns:xlink="http://www.w3.org/1999/xlink" x="0px" y="0px"
	 viewBox="0 0 27.5 57.1" style="enable-background:new 0 0 27.5 57.1;" xml:space="preserve">
<style type="text/css">
	.st0{fill:#EA5A47;}
	.st1{fill:#D22F27;}
	.st2{fill:#D0CFCE;}
	.st3{fill:#9B9B9A;}
	.st4{fill:none;stroke:#000000;stroke-width:2;stroke-linecap:round;stroke-linejoin:round;}
</style>
<g id="color">
	<path class="st0" d="M24.8,26.6C24,25.2,21.3,24,21.3,24l-1-4.2L18,6.8L8.9,6.2L6.7,22.8c-0.1,0.4-1.4,1.8-1.8,1.9
		c-2.8,1-3.1,3.5-3.6,4.6l24.2,0C25.5,29.2,25.5,27.8,24.8,26.6z"/>
	<polygon class="st0" points="9.5,0.8 8.1,6.8 18.8,6.3 18.4,1 	"/>
	<polygon class="st1" points="18.4,1 15.4,1 15.7,6.8 19.4,6.8 	"/>
	<path class="st2" d="M11.6,32.4c0,0,0,2.7,0,3.2l0.3,12.5l2.5,5.8l1.7-4.3l0.8-17.3L11.6,32.4z"/>
	<polygon class="st3" points="14.4,53.7 16.5,48 16.8,33.9 16.9,32.4 14.2,32.5 	"/>
	<path class="st1" d="M16.6,24c0,0,1.4,1.2,2.3,2.6c0.7,1.2,1.2,2.6,1.3,2.7l5.2-0.7c-0.5-1-0.2-2.7-3-3.7c-0.3-0.1-0.7-0.6-0.7-0.9
		c0,0-2.7-14-2.5-13.6l-0.7-4.1l-2.6,0.5l0.8,15.4C16.5,22.2,16.6,24,16.6,24z"/>
</g>
<g id="line">
	<polyline class="st4" points="11.6,33.4 11.6,48.2 14.5,56.1 16.8,48.2 16.8,33.4 	"/>
	<path class="st4" d="M8.9,10.8L6.5,24C1.3,25.9,1,29.5,1,29.5h25.5c0,0-0.3-3.7-5.5-5.5l-2.4-13.3"/>
	<polygon class="st4" points="19.4,6.8 8.1,6.8 9.1,1 18.4,1 	"/>
</g>
</svg>
