<?xml version="1.0" encoding="utf-8"?>
<!-- Generator: Adobe Illustrator 27.0.0, SVG Export Plug-In . SVG Version: 6.00 Build 0)  -->
<svg version="1.1" id="emoji" xmlns="http://www.w3.org/2000/svg" xmlns:xlink="http://www.w3.org/1999/xlink" x="0px" y="0px"
	 viewBox="0 0 52 48.1" style="enable-background:new 0 0 52 48.1;" xml:space="preserve">
<style type="text/css">
	.st0{fill:none;stroke:#000000;stroke-width:2;stroke-miterlimit:10;}
	.st1{fill:none;stroke:#000000;stroke-width:2;stroke-linecap:round;stroke-linejoin:round;}
	.st2{fill:none;stroke:#000000;stroke-width:1.6;stroke-linecap:round;stroke-linejoin:round;}
	.st3{fill:none;stroke:#000000;stroke-width:1.6;stroke-miterlimit:10;}
	.st4{fill:none;stroke:#000000;stroke-width:2;stroke-linecap:round;stroke-linejoin:round;stroke-miterlimit:10;}
</style>
<g id="line">
	<path class="st0" d="M21.5,12.7c0,0.2,0,0.4,0,0.6c0,5.7-3.6,10.4-8,10.4s-8-4.7-8-10.4c0-0.2,0-0.4,0-0.6"/>
	<path class="st1" d="M3.9,8.5c0.5-7.7,6.4-7.8,9.3-7.4c0.3,0.1,1.1,0,1.3,0c5.3-0.7,8,5.3,8,8c0,1,0.2,3.4-1.1,4.7
		c0,0-3.2-3.7-3.4-5.9c0,0-10.1,3.8-10.8,0.5c0,0-0.7,2.7-1.3,3.4c0,0-0.3,2-0.3,2.7C5.6,14.6,3.7,11.9,3.9,8.5z"/>
	<path d="M12.2,13.6c0,0.7-0.5,1.2-1.2,1.2s-1.2-0.5-1.2-1.2s0.5-1.2,1.2-1.2S12.2,12.9,12.2,13.6"/>
	<path d="M17.2,13.6c0,0.7-0.5,1.2-1.2,1.2c-0.7,0-1.2-0.5-1.2-1.2s0.5-1.2,1.2-1.2C16.7,12.4,17.2,12.9,17.2,13.6"/>
	<path class="st1" d="M11.6,18.7c1.2,0.6,2.6,0.6,3.7,0"/>
	<path class="st2" d="M16.5,47.3v-1.7c0-2.5,2.5-4.5,5-4.5c3,2.5,6,2.5,9,0c2.5,0,5,2,5,4.5v1.7"/>
	<path d="M28.8,32.8c0,0.5-0.3,0.9-0.8,1c-0.5,0-0.9-0.3-1-0.8s0.3-0.9,0.8-1c0,0,0,0,0.1,0C28.4,32,28.8,32.4,28.8,32.8z"/>
	<path class="st2" d="M24.7,36.3c0.8,0.6,1.9,0.6,2.7,0"/>
	<path d="M24.1,32C24.1,32,24.1,32,24.1,32c0.6,0,0.9,0.5,0.9,1s-0.5,0.9-1,0.8c-0.5,0-0.9-0.5-0.8-1C23.2,32.4,23.6,32,24.1,32z"/>
	<path class="st3" d="M32.5,32.4c0,0.1,0,0.3,0,0.4c0.1,3.7-2.8,6.9-6.5,7c-3.7-0.2-6.6-3.3-6.5-7c0-0.1,0-0.2,0-0.3"/>
	<path class="st2" d="M23.6,29.4c0.5,3.4,4.5-0.9,4.5-0.9c0.5,1.6,4.4,3.9,4.4,3.9c1-1,0.5-2.9,0.4-3.5c-0.5-2.7-3.1-4.5-5.8-4.1
		c-0.3,0-0.7,0-1,0c-2.3-0.3-6-0.1-7.1,4.6c-0.5,2.3,0.6,3,0.6,3S23.3,27.3,23.6,29.4z"/>
	<path class="st4" d="M36.3,28.3c2.7,0.8,5.4,0.1,8.2-2.1c3.3,0,6.6,2.7,6.6,6v15"/>
	<path class="st4" d="M1,47.1v-15c0-3.3,3.3-6,6.6-6c2.7,2.3,5.4,3,8.1,2.1"/>
	<path class="st1" d="M36.6,18.7c1.2,0.6,2.6,0.6,3.7,0"/>
	<path class="st0" d="M46.5,12.7c0,0.3,0,0.5,0,0.6c0,5.7-3.6,10.4-8,10.4s-8-4.7-8-10.4c0-0.3,0-0.5,0-0.6"/>
	<path class="st1" d="M46.4,14.6c0-0.6-0.3-2.7-0.3-2.7c-0.6-0.7-1.3-3.4-1.3-3.4C44.1,11.8,33.9,8,33.9,8c-0.2,2.1-3.4,5.9-3.4,5.9
		c-1.3-1.3-1.1-3.7-1.1-4.7c0-2.7,2.7-8.7,8-8c0.3,0,1.1,0.1,1.3,0c2.9-0.4,8.8-0.4,9.3,7.4C48.3,11.9,46.4,14.6,46.4,14.6z"/>
	<path d="M39.7,13.6c0-0.7,0.5-1.2,1.2-1.2s1.2,0.5,1.2,1.2s-0.5,1.2-1.2,1.2S39.7,14.4,39.7,13.6"/>
	<path d="M34.7,13.6c0-0.7,0.5-1.2,1.2-1.2s1.2,0.5,1.2,1.2s-0.5,1.2-1.2,1.2S34.7,14.4,34.7,13.6"/>
</g>
</svg>
