<?xml version="1.0" encoding="utf-8"?>
<!-- Generator: Adobe Illustrator 27.0.0, SVG Export Plug-In . SVG Version: 6.00 Build 0)  -->
<svg version="1.1" id="emoji" xmlns="http://www.w3.org/2000/svg" xmlns:xlink="http://www.w3.org/1999/xlink" x="0px" y="0px"
	 viewBox="0 0 66 54.1" style="enable-background:new 0 0 66 54.1;" xml:space="preserve">
<style type="text/css">
	.st0{fill:#61B2E4;}
	.st1{fill:#92D3F5;}
	.st2{fill:none;stroke:#000000;stroke-width:2;stroke-linecap:round;stroke-linejoin:round;stroke-miterlimit:10;}
</style>
<g id="color">
	<polygon class="st0" points="53.4,1 13.4,1 1,12.4 33,53.1 65,12.4 	"/>
	<polyline class="st1" points="34.4,51.4 52.7,12.4 33,1 53.4,1 65,12.4 34.4,51.4 	"/>
</g>
<g id="hair">
</g>
<g id="skin">
</g>
<g id="skin-shadow">
</g>
<g id="line">
	<polygon class="st2" points="53.4,1 13.4,1 1,12.4 33,53.1 65,12.4 	"/>
	<polyline class="st2" points="52.7,12.9 33,53.1 33,13.4 33,1 13.3,12.4 	"/>
	<line class="st2" x1="13.3" y1="12.9" x2="33" y2="53.1"/>
	<line class="st2" x1="1" y1="12.4" x2="65" y2="12.4"/>
	<line class="st2" x1="33" y1="1" x2="52.7" y2="12.4"/>
	<polygon class="st2" points="53.4,1 13.4,1 1,12.4 33,53.1 65,12.4 	"/>
</g>
</svg>
