<?xml version="1.0" encoding="utf-8"?>
<!-- Generator: Adobe Illustrator 27.0.0, SVG Export Plug-In . SVG Version: 6.00 Build 0)  -->
<svg version="1.1" id="emoji" xmlns="http://www.w3.org/2000/svg" xmlns:xlink="http://www.w3.org/1999/xlink" x="0px" y="0px"
	 viewBox="0 0 25.6 56.7" style="enable-background:new 0 0 25.6 56.7;" xml:space="preserve">
<style type="text/css">
	.st0{fill:#EA5A47;}
	.st1{fill:#D22F27;}
	.st2{fill:#D0CFCE;}
	.st3{fill:#9B9B9A;}
	.st4{fill:none;stroke:#000000;stroke-width:2;stroke-linecap:round;stroke-linejoin:round;stroke-miterlimit:10;}
</style>
<g id="color">
	<path class="st0" d="M12.8,1.2C6.4,1.2,1.2,6.4,1.2,12.8s5.2,11.6,11.6,11.6c6.4,0,11.6-5.2,11.6-11.6S19.2,1.2,12.8,1.2z"/>
	<path class="st1" d="M16,23.8c1.7-0.6,3.3-0.8,4.8-2.2c2.1-1.9,3.9-5.3,3.9-8c0-2.4-0.6-5.3-2.3-7.6C20.8,3.8,18,2.1,16,1.4
		c0,0,3.5,5.7,3.5,11.4S16,23.8,16,23.8z"/>
	<path class="st2" d="M12.7,54.9l2.8-7.7c0,0-0.8-19.6-0.4-19.7H10c0.4,0.1-0.2,19.6-0.2,19.6L12.7,54.9z"/>
	<path class="st3" d="M12.8,54.2l2.6-7.1c0,0,0.1-19.1,0.1-19.5l-2.9,0L12.8,54.2z"/>
</g>
<g id="hair">
</g>
<g id="skin">
</g>
<g id="skin-shadow">
</g>
<g id="line">
	<circle class="st4" cx="12.8" cy="12.8" r="11.8"/>
	<polyline class="st4" points="15.4,28.5 15.4,47.2 12.8,55.7 9.8,47.2 9.8,28.5 	"/>
</g>
</svg>
