<?xml version="1.0" encoding="UTF-8"?>
<svg id="Layer_1" xmlns="http://www.w3.org/2000/svg" width="280" height="280" viewBox="0 0 280 280" fill="currentColor" stroke="currentColor">
  <path d="M145.79,.22c-5.33,.5-11.61,2.3-16.76,4.79-5.55,2.67-9.85,5.78-14.24,10.3l-2.59,2.67-2.94-1.44c-6.78-3.28-12.95-4.84-20.35-5.12-19.5-.74-37.82,10.09-46.36,27.39-1.6,3.24-2.94,6.89-3.68,10l-.49,2.14-.94,.24c-7.33,1.86-14.15,5.27-19.61,9.8-2.18,1.79-5.48,5.08-7.07,7.02-4.5,5.49-8.11,12.89-9.65,19.76-.98,4.33-1.11,5.75-1.11,10.76s.36,7.99,1.54,12.45c2.47,9.34,8.31,18.4,15.94,24.7,13.68,11.31,32.16,14.57,49.03,8.64,2.76-.96,7.4-3.24,9.92-4.86l2.18-1.4,1.47,.39c5.01,1.36,11.21,1.95,16.34,1.55,3.08-.24,7.49-.96,9.54-1.55,.67-.2,.87-.15,1.34,.22,6.71,5.25,13.19,8.42,20.84,10.17,3.97,.9,5.97,1.09,11.37,1.09,5.77-.02,8.51-.37,13.26-1.73,6.2-1.75,11.05-4.16,16.36-8.05l2.65-1.97,1.03,.57c2.41,1.36,6.31,3.19,8.27,3.92,12.12,4.44,25.12,4.16,37.02-.85,1.58-.68,3.05-1.16,3.23-1.09,.87,.33,6.08,.79,8.96,.79,13.4,0,25.54-4.92,35.04-14.22,13.55-13.24,18.14-32.36,12.01-50.17-6.35-18.55-23.45-31.53-43.53-33.01l-3.37-.24-2.9-2.78c-5.86-5.62-11.81-9.19-19.26-11.6-3.5-1.14-7.96-2.06-11.19-2.32l-1.89-.13-.76-1.47c-1.16-2.21-4.08-6.37-5.95-8.47-4.84-5.43-9.45-8.95-15.76-12.03C164.42,1.06,155.04-.65,145.79,.22Z" />
  <path d="M116.19,161.31c-.33,.2-.67,.5-.76,.72-.07,.22-2.63,9.65-5.68,20.96s-6.75,25.07-8.22,30.56c-1.81,6.67-2.65,10.2-2.56,10.57,.18,.72,1.09,1.42,1.85,1.42,.31,0,4.77-.98,9.9-2.21,5.13-1.23,9.36-2.17,9.43-2.12,.04,.07-6.91,12.65-15.45,27.98-10.74,19.27-15.56,28.11-15.62,28.68-.07,.68,.02,.94,.58,1.49,.71,.7,1.4,.81,2.21,.37,.27-.15,20.39-18.71,44.73-41.24,29.49-27.3,44.31-41.17,44.4-41.55,.2-.77-.13-1.58-.85-2.1-.62-.46-.65-.46-4.23-.09-2.01,.2-8.94,.92-15.42,1.58-6.49,.68-11.81,1.18-11.83,1.16-.02-.04,4.01-7.46,8.96-16.47,5.48-9.95,9.07-16.74,9.14-17.22,.11-.7,.02-.9-.56-1.49-.67-.66-.69-.66-3.21-.66-1.38,0-8.09-.09-14.89-.22-28.62-.46-31.27-.48-31.89-.13Z" />
</svg>