<?xml version="1.0" encoding="utf-8"?>
<!-- Generator: Adobe Illustrator 27.0.0, SVG Export Plug-In . SVG Version: 6.00 Build 0)  -->
<svg version="1.1" id="emoji" xmlns="http://www.w3.org/2000/svg" xmlns:xlink="http://www.w3.org/1999/xlink" x="0px" y="0px"
	 viewBox="0 0 52 51.9" style="enable-background:new 0 0 52 51.9;" xml:space="preserve">
<style type="text/css">
	.st0{fill:#F4AA41;}
	.st1{fill:#E27022;}
	.st2{fill:none;stroke:#000000;stroke-width:2;stroke-linecap:round;stroke-linejoin:round;stroke-miterlimit:10;}
</style>
<g id="color">
	<rect x="5" y="6.2" class="st0" width="42" height="41"/>
	<polyline class="st1" points="6,45.7 1,45.9 1,50.9 51,50.9 51,43.9 46,44.1 	"/>
	<polyline class="st1" points="46,6.2 51,6 51,1 1,1 1,8 6,7.8 	"/>
</g>
<g id="hair">
</g>
<g id="skin">
</g>
<g id="skin-shadow">
</g>
<g id="line">
	<polyline class="st2" points="6,45.7 1,45.9 1,50.9 51,50.9 51,43.9 46,44.1 	"/>
	<polyline class="st2" points="46,6.2 51,6 51,1 1,1 1,8 6,7.8 	"/>
	<polyline class="st2" points="46,6.2 24.6,7.1 6,7.8 	"/>
	<line class="st2" x1="6" y1="45.7" x2="46" y2="44.1"/>
	<line class="st2" x1="6" y1="12" x2="6" y2="40"/>
	<line class="st2" x1="46" y1="12" x2="46" y2="40"/>
	<line class="st2" x1="10.9" y1="14.9" x2="21.9" y2="14.9"/>
	<line class="st2" x1="10.9" y1="20.1" x2="42" y2="20.1"/>
	<line class="st2" x1="10.9" y1="25.4" x2="42" y2="25.4"/>
	<line class="st2" x1="10.9" y1="30.6" x2="42" y2="30.6"/>
	<line class="st2" x1="10.9" y1="35.9" x2="42" y2="35.9"/>
</g>
</svg>
