<?xml version="1.0" encoding="utf-8"?>
<!-- Generator: Adobe Illustrator 27.0.0, SVG Export Plug-In . SVG Version: 6.00 Build 0)  -->
<svg version="1.1" id="emoji" xmlns="http://www.w3.org/2000/svg" xmlns:xlink="http://www.w3.org/1999/xlink" x="0px" y="0px"
	 viewBox="0 0 52 47" style="enable-background:new 0 0 52 47;" xml:space="preserve">
<style type="text/css">
	.st0{fill:none;stroke:#000000;stroke-width:2;stroke-linecap:round;stroke-linejoin:round;stroke-miterlimit:2;}
	.st1{fill:none;stroke:#000000;stroke-width:2;stroke-miterlimit:2;}
</style>
<g id="line">
	<path class="st0" d="M24,6V3.5C24,2.1,25.1,1,26.5,1l0,0C27.9,1,29,2.1,29,3.5V6"/>
	<path class="st0" d="M37.5,46H14.5C9.8,46,6,42.2,6,37.5V14.5C6,9.8,9.8,6,14.5,6h22.9c4.7,0,8.5,3.8,8.5,8.5v22.9
		C46,42.2,42.2,46,37.5,46z"/>
	<ellipse class="st0" cx="34.8" cy="19" rx="2.8" ry="2.8"/>
	<ellipse class="st0" cx="17.3" cy="19" rx="2.8" ry="2.8"/>
	<path class="st1" d="M34.5,37.5h-17c-2.2,0-4-1.8-4-4l0,0c0-2.2,1.8-4,4-4h17c2.2,0,4,1.8,4,4l0,0C38.5,35.7,36.7,37.5,34.5,37.5z"
		/>
	<path class="st0" d="M3.5,31L3.5,31C2.1,31,1,29.9,1,28.5v-8C1,19.1,2.1,18,3.5,18l0,0C4.9,18,6,19.1,6,20.5v8
		C6,29.9,4.9,31,3.5,31z"/>
	<path class="st0" d="M48.5,31L48.5,31c1.4,0,2.5-1.1,2.5-2.5v-8c0-1.4-1.1-2.5-2.5-2.5l0,0c-1.4,0-2.5,1.1-2.5,2.5v8
		C46,29.9,47.1,31,48.5,31z"/>
	<line class="st0" x1="18" y1="30" x2="18" y2="37"/>
	<line class="st0" x1="23" y1="30" x2="23" y2="37"/>
	<line class="st0" x1="28" y1="30" x2="28" y2="37"/>
	<line class="st0" x1="33" y1="30" x2="33" y2="37"/>
</g>
</svg>
