<?xml version="1.0" encoding="utf-8"?>
<!-- Generator: Adobe Illustrator 27.0.0, SVG Export Plug-In . SVG Version: 6.00 Build 0)  -->
<svg version="1.1" id="emoji" xmlns="http://www.w3.org/2000/svg" xmlns:xlink="http://www.w3.org/1999/xlink" x="0px" y="0px"
	 viewBox="0 0 45.8 39.6" style="enable-background:new 0 0 45.8 39.6;" xml:space="preserve">
<style type="text/css">
	.st0{fill:#D0CFCE;}
	.st1{fill:#9B9B9A;}
	.st2{fill:none;stroke:#000000;stroke-width:2.069;stroke-linecap:round;stroke-linejoin:round;stroke-miterlimit:10;}
</style>
<g id="color">
	<polygon class="st0" points="45.4,7.2 22.9,12.4 1.2,6.9 22.9,2 	"/>
	<polygon class="st1" points="45.5,32.9 23.3,38.7 22.9,11.6 45.4,6.4 	"/>
	<polygon class="st0" points="1.3,32.5 23,38.7 22.9,12.4 9.9,9.3 1.3,6.9 	"/>
</g>
<g id="hair">
</g>
<g id="skin">
</g>
<g id="skin-shadow">
</g>
<g id="line">
	<polyline class="st2" points="22.9,38.6 44.7,33.3 44.7,6.3 22.9,11.1 1,6.3 1,33.3 22.9,38.6 22.9,15 	"/>
	<polyline class="st2" points="1,6.3 23.1,1 44.7,6.3 	"/>
	<circle cx="8.5" cy="17.5" r="3"/>
	<circle cx="14.5" cy="29" r="3"/>
	<circle cx="29" cy="29.8" r="3"/>
	<circle cx="34.1" cy="22.6" r="3"/>
	<circle cx="39.2" cy="15.5" r="3"/>
	<ellipse cx="23.1" cy="5.7" rx="4" ry="1.6"/>
</g>
</svg>
