<?xml version="1.0" encoding="utf-8"?>
<!-- Svg Vector Icons : http://www.onlinewebfonts.com/icon -->
<!DOCTYPE svg PUBLIC "-//W3C//DTD SVG 1.1//EN" "http://www.w3.org/Graphics/SVG/1.1/DTD/svg11.dtd">
<svg version="1.1" xmlns="http://www.w3.org/2000/svg" xmlns:xlink="http://www.w3.org/1999/xlink" x="0px" y="0px" viewBox="0 0 256 256" enable-background="new 0 0 256 256" xml:space="preserve">
<metadata> Svg Vector Icons : http://www.onlinewebfonts.com/icon </metadata>
<g><g><g><path fill="#000000" d="M130.7,45.2c-14.2,3.8-27.9,14.6-34,26.8c-2.2,4.3-3.3,5.9-4.2,5.6c-0.7-0.2-3.6-0.9-6.5-1.5c-6.9-1.2-15.8,0.1-22.8,3.4c-9.1,4.4-17.5,14.6-20,24.7c-0.9,3.6-1.1,3.8-4.7,4.7c-5.5,1.4-12.8,5.5-16.9,9.5c-14.9,14.5-15.4,37.9-1.1,53.1c5.1,5.3,9.4,8.1,16.3,10.2c4.2,1.3,7.6,1.6,22.9,1.6h17.9v-5.6v-5.7l-18.5-0.2c-21.1-0.2-22.9-0.7-29.6-7.4c-5.2-5-7.8-11.1-7.8-18.7c0-5.3,0.4-6.9,2.7-11.6c4.4-9,10.9-13.2,22.2-14.7l7.2-0.9l0.3-6.5c0.6-10.3,5.1-17.4,14-21.7c9.6-4.7,18.1-4,27.9,2.3l5,3.3l1.4-6.1c6.9-28.9,36.5-43,61.9-29.5c9.1,4.9,16.8,13.7,19.8,22.7l1.4,4.1h5.1c14.8,0,27.3,6,35.8,17.3c18.1,23.9,6.5,57.6-23,66.3c-2.9,0.8-7.5,1.3-12.9,1.3H182v5.8v5.8l10.9-0.3c12-0.4,18.6-2.1,27.4-7.4c7.2-4.2,15.6-13.2,19.5-20.7c4.8-9.2,6.3-15.3,6.2-26.1c0-14.8-4.4-25.6-14.9-36.6c-8.7-9.1-18.7-14.3-31.4-16.2l-6-0.9l-3.1-5.4c-6-10.6-16.8-19.3-29-23.5C153,43.4,139.2,42.8,130.7,45.2z"/><path fill="#000000" d="M123.5,142.2l-25.4,29.2l15.4,0.2c8.5,0.1,15.4,0.2,15.4,0.4c0,0.1-2.5,9.1-5.7,20.1c-3.1,11-5.6,20.1-5.5,20.2c0.1,0.1,11.7-13.2,25.8-29.4l25.6-29.5l-15.5-0.2l-15.4-0.2l5.6-19.7c3.1-10.9,5.5-19.8,5.3-20C149,113.1,137.4,126.1,123.5,142.2z"/></g></g></g>
</svg>