<svg version="1.1" id="Layer_1" xmlns="http://www.w3.org/2000/svg" xmlns:xlink="http://www.w3.org/1999/xlink" x="0px" y="0px"
	 viewBox="0 0 1280 1280" style="enable-background:new 0 0 1280 1280;" xml:space="preserve">
<g transform="translate(0.000000,1280.000000) scale(0.100000,-0.100000)">
	<path d="M12178.3,12785c-214.7-7-556.2-18-758.9-24c-202.7-7-507.4-16-677.6-21c-170.2-5-467.3-14-661.4-20
		c-194.1-6-483.5-15-645.1-20c-160.5-5-484.6-15-718.8-22l-426.1-12l-2279-2142.6c-2975-2796.4-3151.7-2962.6-3148.5-2965.6
		c3.3-3,342.6-15,1270.7-44.1c345.9-11,831.6-27,1078.8-35s464-15,480.3-15c33.6,0,197.3,151.2-3237.4-2998.6l-1288-1181.4l290.6-7
		c159.4-3,593.1-11,962.8-18c369.7-6,673.3-13,674.4-14c2.2-2-692.8-711.9-1542.8-1578.9S3.9,84.6,0.7,77.6
		c-7.6-18,53.1-84.1,72.6-77.1c8.7,3,745.9,380.5,1637.1,839c891.2,459.6,2621.6,1349.6,3843.5,1978.4
		c1223,628.8,2225.8,1146.4,2229.1,1149.4c3.3,4,0,28-8.7,55.1l-15.2,48.1l-484.6-6c-1085.3-13-2208.5-24-2211.8-21
		c-4.3,4,349.1,264.3,3465.1,2559.1c1282.6,944.1,2332.1,1720.1,2332.1,1724.1c1.1,5-709.1,9-1576.4,10l-1577.5,3l1026.7,886.1
		c4456,3840.6,4058.1,3494.2,4058.1,3536.3v38l-110.6-1C12618.5,12798,12393,12792,12178.3,12785z"/>
</g>
</svg>
