<?xml version="1.0" encoding="UTF-8"?><svg id="Layer_1" xmlns="http://www.w3.org/2000/svg" width="100" height="100" viewBox="0 0 100 100"><path d="M95.14,.12c-1.68,.05-4.35,.14-5.93,.19-1.58,.05-3.96,.12-5.29,.16-1.33,.04-3.65,.11-5.17,.16-1.52,.05-3.78,.12-5.04,.16-1.25,.04-3.79,.12-5.62,.17l-3.33,.09-17.8,16.74c-23.24,21.85-24.62,23.15-24.6,23.17,.03,.02,2.68,.12,9.93,.34,2.7,.09,6.5,.21,8.43,.27s3.63,.12,3.75,.12c.26,0,1.54-1.18-25.29,23.43l-10.06,9.23,2.27,.05c1.25,.02,4.63,.09,7.52,.14,2.89,.05,5.26,.1,5.27,.11,.02,.02-5.41,5.56-12.05,12.34S.03,99.34,0,99.39c-.06,.14,.41,.66,.57,.6,.07-.02,5.83-2.97,12.79-6.55,6.96-3.59,20.48-10.54,30.03-15.46,9.55-4.91,17.39-8.96,17.41-8.98,.03-.03,0-.22-.07-.43l-.12-.38-3.79,.05c-8.48,.1-17.25,.19-17.28,.16-.03-.03,2.73-2.06,27.07-19.99,10.02-7.38,18.22-13.44,18.22-13.47,0-.04-5.54-.07-12.32-.08l-12.32-.02,8.02-6.92C103.04-2.08,99.93,.63,99.93,.3v-.3h-.86c-.48,.02-2.24,.06-3.92,.12Z"/></svg>